# xmcd
#
# Track frame offsets: 
#        150
#        4328
#        33629
#        59039
#        90769
#        123260
#        153755
#        183274
#        208067
#        234984
#        278788
#
# Disc length: 3822 seconds
#
# Revision: 1
# Processed by: cddbd v1.5.2PL0 Copyright (c) Steve Scherf et al.
# Submitted via: ExactAudioCopy v0.99pb3
#
DISCID=8a0eec0b
DTITLE=Quasimode - oneself-LIKENESS
DYEAR=2007
DGENRE=Jazz
TTITLE0=Catch the fact - intro
TTITLE1=Down in the village
TTITLE2=Giant Black Shadow
TTITLE3=1000 days for spirit
TTITLE4=Lucky Luciano
TTITLE5=Ipe Amarelo
TTITLE6=Skelton Coast
TTITLE7=Feelin' Green
TTITLE8=oneself - LIKENESS
TTITLE9=Ipe Amarelo (Spiritual South Skitzophremix)
TTITLE10=Catch the fact - outro
EXTD=YEAR: 2007
EXTT0=
EXTT1=
EXTT2=
EXTT3=
EXTT4=
EXTT5=
EXTT6=
EXTT7=
EXTT8=
EXTT9=
EXTT10=
PLAYORDER=
